<svg width="149" height="35" viewBox="0 0 149 35" fill="none" xmlns="http://www.w3.org/2000/svg">
<path d="M5.89062 30.25C1.96354 30.25 0 27.4375 0 21.8125V9.95312C0 4.81771 2.25 2.25 6.75 2.25C8.60417 2.25 10.026 2.625 11.0156 3.375C12.0052 4.11458 12.6875 5.19792 13.0625 6.625C13.4375 8.05208 13.625 9.79167 13.625 11.8438H8.25V9.40625C8.25 8.8125 8.16667 8.31771 8 7.92188C7.84375 7.51562 7.51042 7.3125 7 7.3125C6.36458 7.3125 5.94271 7.52604 5.73438 7.95312C5.53646 8.38021 5.4375 8.84896 5.4375 9.35938V22.6875C5.4375 23.4271 5.53125 24.0312 5.71875 24.5C5.91667 24.9583 6.29688 25.1875 6.85938 25.1875C7.44271 25.1875 7.82812 24.9583 8.01562 24.5C8.21354 24.0312 8.3125 23.4167 8.3125 22.6562V18.7344H6.84375V13.9844H13.5625V30H11.3594L10.4219 27.6875C9.46354 29.3958 7.95312 30.25 5.89062 30.25ZM22.2188 30.25C20.5521 30.25 19.224 29.9375 18.2344 29.3125C17.2448 28.6875 16.5365 27.7865 16.1094 26.6094C15.6823 25.4323 15.4688 24.0156 15.4688 22.3594V12.9375C15.4688 10.7604 16.0938 9.11458 17.3438 8C18.5938 6.875 20.3125 6.3125 22.5 6.3125C27 6.3125 29.25 8.52083 29.25 12.9375V14.6406C29.25 16.7031 29.2292 18.0885 29.1875 18.7969H21.0625V23.3281C21.0625 23.7448 21.0885 24.1562 21.1406 24.5625C21.1927 24.9583 21.3073 25.2865 21.4844 25.5469C21.6719 25.8073 21.9688 25.9375 22.375 25.9375C22.9583 25.9375 23.3229 25.6875 23.4688 25.1875C23.6146 24.6771 23.6875 24.0156 23.6875 23.2031V20.9531H29.25V22.2812C29.25 24.0312 29.0312 25.5 28.5938 26.6875C28.1667 27.8646 27.4375 28.7552 26.4062 29.3594C25.3854 29.9531 23.9896 30.25 22.2188 30.25ZM21.0312 16.0156H23.6875V12.8594C23.6875 12.0156 23.5833 11.4115 23.375 11.0469C23.1667 10.6719 22.8542 10.4844 22.4375 10.4844C21.9896 10.4844 21.6406 10.6615 21.3906 11.0156C21.151 11.3698 21.0312 11.9844 21.0312 12.8594V16.0156ZM36.0938 30.25C34.5833 30.25 33.5625 29.9323 33.0312 29.2969C32.5104 28.651 32.25 27.6667 32.25 26.3438V11.7344H30.6719V7.46875H32.25V2.5H37.6875V7.46875H39.2656V11.7344H37.6875V25.0312C37.6875 25.4167 37.75 25.6875 37.875 25.8438C38 26 38.2396 26.0781 38.5938 26.0781C38.8438 26.0781 39.0677 26.0573 39.2656 26.0156V29.8281C39.1406 29.8698 38.75 29.9479 38.0938 30.0625C37.4375 30.1875 36.7708 30.25 36.0938 30.25ZM55.0625 30.25C53.0729 30.25 51.4688 29.6302 50.25 28.3906C49.0417 27.151 48.4375 25.4167 48.4375 23.1875V10.5C48.4375 7.83333 48.9635 5.79167 50.0156 4.375C51.0781 2.95833 52.8021 2.25 55.1875 2.25C56.4896 2.25 57.6458 2.48958 58.6562 2.96875C59.6771 3.44792 60.4792 4.16667 61.0625 5.125C61.6458 6.07292 61.9375 7.27083 61.9375 8.71875V13.4688H56.4688V9.40625C56.4688 8.58333 56.3646 8.03125 56.1562 7.75C55.9479 7.45833 55.625 7.3125 55.1875 7.3125C54.6771 7.3125 54.3333 7.5 54.1562 7.875C53.9792 8.23958 53.8906 8.72917 53.8906 9.34375V23.1094C53.8906 23.8698 54 24.4062 54.2188 24.7188C54.4479 25.0312 54.7708 25.1875 55.1875 25.1875C55.6562 25.1875 55.9844 24.9948 56.1719 24.6094C56.3698 24.224 56.4688 23.724 56.4688 23.1094V18.1562H62V23.3594C62 25.776 61.3906 27.5312 60.1719 28.625C58.9531 29.7083 57.25 30.25 55.0625 30.25ZM70.5625 30.25C65.8958 30.25 63.5625 27.8281 63.5625 22.9844V13.5781C63.5625 11.3698 64.1823 9.60938 65.4219 8.29688C66.6615 6.97396 68.375 6.3125 70.5625 6.3125C72.7604 6.3125 74.4792 6.97396 75.7188 8.29688C76.9583 9.60938 77.5781 11.3698 77.5781 13.5781V22.9844C77.5781 27.8281 75.2396 30.25 70.5625 30.25ZM70.5625 25.9375C71.0312 25.9375 71.3646 25.7708 71.5625 25.4375C71.7708 25.0938 71.875 24.6615 71.875 24.1406V12.6875C71.875 11.3229 71.4375 10.6406 70.5625 10.6406C69.6875 10.6406 69.25 11.3229 69.25 12.6875V24.1406C69.25 24.6615 69.349 25.0938 69.5469 25.4375C69.7552 25.7708 70.0938 25.9375 70.5625 25.9375ZM86.4688 30.25C81.8021 30.25 79.4688 27.8281 79.4688 22.9844V13.5781C79.4688 11.3698 80.0885 9.60938 81.3281 8.29688C82.5677 6.97396 84.2812 6.3125 86.4688 6.3125C88.6667 6.3125 90.3854 6.97396 91.625 8.29688C92.8646 9.60938 93.4844 11.3698 93.4844 13.5781V22.9844C93.4844 27.8281 91.1458 30.25 86.4688 30.25ZM86.4688 25.9375C86.9375 25.9375 87.2708 25.7708 87.4688 25.4375C87.6771 25.0938 87.7812 24.6615 87.7812 24.1406V12.6875C87.7812 11.3229 87.3438 10.6406 86.4688 10.6406C85.5938 10.6406 85.1562 11.3229 85.1562 12.6875V24.1406C85.1562 24.6615 85.2552 25.0938 85.4531 25.4375C85.6615 25.7708 86 25.9375 86.4688 25.9375ZM95.5625 30V2.5H101.094V14.6406L103.781 6.5625H109.578L106.062 16.75L110.531 30H104.578L101.094 18.9531V30H95.5625ZM111.25 5.125V0.46875H116.844V5.125H111.25ZM111.25 30V6.5625H116.844V30H111.25ZM119.062 30V6.5625H124.656V9.54688C124.865 8.65104 125.25 7.89062 125.812 7.26562C126.385 6.63021 127.177 6.3125 128.188 6.3125C129.812 6.3125 130.99 6.8125 131.719 7.8125C132.458 8.8125 132.828 10.1823 132.828 11.9219V30H127.312V12.5C127.312 12.0417 127.219 11.6198 127.031 11.2344C126.844 10.8385 126.521 10.6406 126.062 10.6406C125.635 10.6406 125.318 10.7917 125.109 11.0938C124.911 11.3854 124.786 11.7552 124.734 12.2031C124.682 12.6406 124.656 13.0781 124.656 13.5156V30H119.062ZM141.344 34.0625C140.26 34.0625 139.328 34.0052 138.547 33.8906C137.776 33.7865 137.083 33.5938 136.469 33.3125C135.854 33.0312 135.24 32.6354 134.625 32.125L136.516 28.8906C137.88 29.7031 139.245 30.1094 140.609 30.1094C141.505 30.1094 142.172 29.8229 142.609 29.25C143.047 28.6771 143.266 27.9323 143.266 27.0156V24.7188C142.818 26.3229 141.625 27.125 139.688 27.125C138.573 27.125 137.672 26.8594 136.984 26.3281C136.297 25.7969 135.797 25.0781 135.484 24.1719C135.172 23.2656 135.016 22.2552 135.016 21.1406V12.7188C135.016 11.4583 135.151 10.349 135.422 9.39062C135.693 8.42188 136.167 7.66667 136.844 7.125C137.521 6.58333 138.469 6.3125 139.688 6.3125C140.719 6.3125 141.521 6.57292 142.094 7.09375C142.677 7.61458 143.068 8.31771 143.266 9.20312V6.5625H148.969V26.6562C148.969 29.3125 148.354 31.2083 147.125 32.3438C145.906 33.4896 143.979 34.0625 141.344 34.0625ZM141.953 22.9062C142.828 22.9062 143.266 22.1146 143.266 20.5312V12.5625C143.266 12.1354 143.141 11.6979 142.891 11.25C142.651 10.8021 142.318 10.5781 141.891 10.5781C141.349 10.5781 141.01 10.7812 140.875 11.1875C140.74 11.5833 140.672 12.0417 140.672 12.5625V20.5312C140.672 21.0938 140.74 21.6302 140.875 22.1406C141.021 22.651 141.38 22.9062 141.953 22.9062Z" fill="white"/>
</svg>
