<svg width="481" height="151" viewBox="0 0 481 151" fill="none" xmlns="http://www.w3.org/2000/svg">
<path d="M49.6615 101.768C43.6882 101.768 39.2508 99.7627 36.3495 95.752C33.4908 91.6987 32.0615 86.0027 32.0615 78.664C32.0615 71.3253 33.4908 65.6507 36.3495 61.64C39.2508 57.5867 43.6882 55.56 49.6615 55.56C51.9655 55.56 53.9922 55.88 55.7415 56.52C57.5335 57.1173 59.0695 57.9707 60.3495 59.08C61.6295 60.1893 62.6748 61.5333 63.4855 63.112C64.3388 64.6907 65.0002 66.4613 65.4695 68.424L56.5095 70.6C56.2535 69.5333 55.9548 68.552 55.6135 67.656C55.2722 66.76 54.8242 65.992 54.2695 65.352C53.7575 64.712 53.0962 64.2213 52.2855 63.88C51.5175 63.496 50.5788 63.304 49.4695 63.304C46.8668 63.304 45.0108 64.328 43.9015 66.376C42.8348 68.3813 42.3015 71.176 42.3015 74.76V82.568C42.3015 86.152 42.8348 88.968 43.9015 91.016C45.0108 93.0213 46.8668 94.024 49.4695 94.024C51.6882 94.024 53.2882 93.3413 54.2695 91.976C55.2935 90.6107 56.0402 88.8613 56.5095 86.728L65.4695 88.904C65.0002 90.8667 64.3388 92.6373 63.4855 94.216C62.6748 95.7947 61.6295 97.16 60.3495 98.312C59.0695 99.4213 57.5335 100.275 55.7415 100.872C53.9922 101.469 51.9655 101.768 49.6615 101.768ZM87.0125 101.768C81.0392 101.768 76.6232 99.7413 73.7645 95.688C70.9485 91.6347 69.5405 85.96 69.5405 78.664C69.5405 71.368 70.9485 65.6933 73.7645 61.64C76.6232 57.5867 81.0392 55.56 87.0125 55.56C92.9858 55.56 97.3805 57.5867 100.197 61.64C103.055 65.6933 104.485 71.368 104.485 78.664C104.485 85.96 103.055 91.6347 100.197 95.688C97.3805 99.7413 92.9858 101.768 87.0125 101.768ZM87.0125 94.024C89.7432 94.024 91.6205 93.0213 92.6445 91.016C93.7112 88.968 94.2445 86.1307 94.2445 82.504V74.76C94.2445 71.176 93.7112 68.3813 92.6445 66.376C91.6205 64.328 89.7432 63.304 87.0125 63.304C84.2818 63.304 82.3832 64.328 81.3165 66.376C80.2925 68.3813 79.7805 71.176 79.7805 74.76V82.568C79.7805 86.152 80.2925 88.968 81.3165 91.016C82.3832 93.0213 84.2818 94.024 87.0125 94.024ZM125.388 101.768C119.414 101.768 114.998 99.7413 112.14 95.688C109.324 91.6347 107.916 85.96 107.916 78.664C107.916 71.368 109.324 65.6933 112.14 61.64C114.998 57.5867 119.414 55.56 125.388 55.56C131.361 55.56 135.756 57.5867 138.572 61.64C141.43 65.6933 142.86 71.368 142.86 78.664C142.86 85.96 141.43 91.6347 138.572 95.688C135.756 99.7413 131.361 101.768 125.388 101.768ZM125.388 94.024C128.118 94.024 129.996 93.0213 131.02 91.016C132.086 88.968 132.62 86.1307 132.62 82.504V74.76C132.62 71.176 132.086 68.3813 131.02 66.376C129.996 64.328 128.118 63.304 125.388 63.304C122.657 63.304 120.758 64.328 119.692 66.376C118.668 68.3813 118.156 71.176 118.156 74.76V82.568C118.156 86.152 118.668 88.968 119.692 91.016C120.758 93.0213 122.657 94.024 125.388 94.024ZM162.483 82.376L158.515 87.944V101H148.915V56.328H158.515V75.016H159.027L163.891 67.592L171.763 56.328H182.515L169.139 75.208L183.155 101H172.339L162.483 82.376ZM372.406 73.288C372.406 76.4453 371.915 79.4107 370.934 82.184C369.952 84.9573 368.672 87.5387 367.094 89.928C365.558 92.2747 363.808 94.3867 361.846 96.264C359.926 98.1413 358.006 99.72 356.086 101H342.838C345.611 99.08 348.086 97.2453 350.262 95.496C352.48 93.704 354.4 91.9333 356.022 90.184C357.686 88.392 359.03 86.5573 360.054 84.68C361.12 82.8027 361.888 80.776 362.358 78.6L361.782 78.408C361.398 79.2613 360.907 80.0933 360.31 80.904C359.755 81.7147 359.072 82.44 358.262 83.08C357.494 83.6773 356.555 84.168 355.446 84.552C354.379 84.936 353.12 85.128 351.67 85.128C349.792 85.128 348.043 84.808 346.422 84.168C344.8 83.4853 343.392 82.5467 342.198 81.352C341.046 80.1147 340.128 78.6427 339.446 76.936C338.763 75.2293 338.422 73.3093 338.422 71.176C338.422 68.9147 338.827 66.824 339.638 64.904C340.448 62.984 341.579 61.3413 343.03 59.976C344.523 58.568 346.315 57.48 348.406 56.712C350.496 55.944 352.822 55.56 355.382 55.56C358.07 55.56 360.459 55.9867 362.55 56.84C364.683 57.6507 366.475 58.8453 367.926 60.424C369.376 61.96 370.486 63.816 371.254 65.992C372.022 68.168 372.406 70.6 372.406 73.288ZM355.446 77.768C357.622 77.768 359.328 77.192 360.566 76.04C361.803 74.8453 362.422 73.1387 362.422 70.92V70.024C362.422 67.8053 361.824 66.0987 360.63 64.904C359.478 63.6667 357.75 63.048 355.446 63.048C353.142 63.048 351.392 63.6667 350.198 64.904C349.003 66.0987 348.406 67.8053 348.406 70.024V70.92C348.406 73.1387 349.003 74.8453 350.198 76.04C351.435 77.192 353.184 77.768 355.446 77.768ZM394.013 101.768C391.623 101.768 389.895 101.256 388.829 100.232C387.805 99.1653 387.293 97.9067 387.293 96.456V94.216C387.293 92.7653 387.805 91.528 388.829 90.504C389.895 89.4373 391.623 88.904 394.013 88.904C396.402 88.904 398.109 89.4373 399.133 90.504C400.199 91.528 400.733 92.7653 400.733 94.216V96.456C400.733 97.9067 400.199 99.1653 399.133 100.232C398.109 101.256 396.402 101.768 394.013 101.768ZM432.388 101.768C426.414 101.768 421.998 99.7413 419.14 95.688C416.324 91.6347 414.916 85.96 414.916 78.664C414.916 71.368 416.324 65.6933 419.14 61.64C421.998 57.5867 426.414 55.56 432.388 55.56C438.361 55.56 442.756 57.5867 445.572 61.64C448.43 65.6933 449.86 71.368 449.86 78.664C449.86 85.96 448.43 91.6347 445.572 95.688C442.756 99.7413 438.361 101.768 432.388 101.768ZM432.388 94.216C435.246 94.216 437.23 93.2133 438.34 91.208C439.492 89.2027 440.068 86.408 440.068 82.824V74.504C440.068 70.92 439.492 68.1253 438.34 66.12C437.23 64.1147 435.246 63.112 432.388 63.112C429.529 63.112 427.524 64.1147 426.372 66.12C425.262 68.1253 424.708 70.92 424.708 74.504V82.824C424.708 86.408 425.262 89.2027 426.372 91.208C427.524 93.2133 429.529 94.216 432.388 94.216ZM432.388 82.44C430.894 82.44 429.849 82.1413 429.252 81.544C428.697 80.9467 428.42 80.2213 428.42 79.368V77.96C428.42 77.1067 428.697 76.3813 429.252 75.784C429.849 75.1867 430.894 74.888 432.388 74.888C433.881 74.888 434.905 75.1867 435.46 75.784C436.057 76.3813 436.356 77.1067 436.356 77.96V79.368C436.356 80.2213 436.057 80.9467 435.46 81.544C434.905 82.1413 433.881 82.44 432.388 82.44Z" fill="black"/>
<path d="M202.138 101.768C196.164 101.768 191.748 99.7413 188.89 95.688C186.074 91.6347 184.666 85.96 184.666 78.664C184.666 71.368 186.074 65.6933 188.89 61.64C191.748 57.5867 196.164 55.56 202.138 55.56C208.111 55.56 212.506 57.5867 215.322 61.64C218.18 65.6933 219.61 71.368 219.61 78.664C219.61 85.96 218.18 91.6347 215.322 95.688C212.506 99.7413 208.111 101.768 202.138 101.768ZM202.138 94.024C204.868 94.024 206.746 93.0213 207.77 91.016C208.836 88.968 209.37 86.1307 209.37 82.504V74.76C209.37 71.176 208.836 68.3813 207.77 66.376C206.746 64.328 204.868 63.304 202.138 63.304C199.407 63.304 197.508 64.328 196.442 66.376C195.418 68.3813 194.906 71.176 194.906 74.76V82.568C194.906 86.152 195.418 88.968 196.442 91.016C197.508 93.0213 199.407 94.024 202.138 94.024ZM226.433 101V56.328H256.065V64.2H236.033V74.44H253.953V82.312H236.033V101H226.433ZM264.808 101V56.328H294.44V64.2H274.408V74.44H292.328V82.312H274.408V101H264.808Z" fill="#B7AB98"/>
<g clip-path="url(#clip0_61_291)">
<path d="M460.776 54.9036L460.416 55.9853C460.612 55.3212 460.776 54.9036 460.776 54.9036Z" fill="#B7AB98"/>
<path d="M443.319 39.7271L444.116 40.1885C444.2 40.236 444.301 40.3113 444.385 40.3587C443.995 40.1769 443.642 39.9593 443.319 39.7271Z" fill="#0D0D0D"/>
<path d="M450.482 40.9033C452.314 40.3608 453.851 39.1993 455.586 38.42C459.11 36.8533 463.457 36.9415 466.876 38.6916C461.342 39.9125 455.831 41.1399 450.297 42.3608C449.003 42.6396 448.03 42.4063 447.076 41.9691L444.485 40.4339C446.327 41.2888 448.539 41.4832 450.482 40.9033Z" fill="#0D0D0D"/>
<path d="M444.385 40.3587C444.301 40.3113 444.2 40.236 444.116 40.1885L444.492 40.4127C444.446 40.3996 444.431 40.3718 444.385 40.3587Z" fill="#0D0D0D"/>
<path d="M422.568 9.96011C422.568 9.96011 423.713 6.52399 428.423 3.34629C433.133 0.168596 445.801 1.18508 451.781 5.15919C457.761 9.13324 456.677 14.8646 458.659 16.2012C460.647 17.5167 470.506 19.6079 474.969 26.9343C479.432 34.2608 475.501 38.7782 475.773 40.3669C476.044 41.9557 480.834 47.0984 478.972 56.3709C477.11 65.6432 464.668 63.948 461.561 62.3109C459.311 61.1061 459.913 57.7231 460.416 55.9853L460.777 54.9036C460.777 54.9036 460.612 55.3213 460.416 55.9853L455.612 70.4087C455.612 70.4087 450.036 73.7091 435.7 69.2144C421.364 64.7203 415.688 58.5559 415.688 58.5559L421.305 41.6936C421.305 41.6936 413.841 37.2928 412.39 33.0873C410.932 28.9028 411.107 19.889 413.807 15.3893C416.582 10.888 422.568 9.96011 422.568 9.96011Z" fill="#B7AB98"/>
<path d="M422.568 9.96011C422.568 9.96011 423.713 6.52399 428.423 3.34629C433.133 0.168596 445.801 1.18508 451.781 5.15919C452.641 5.73182 453.342 6.32864 453.954 6.96948C451.635 6.65091 449.204 6.81209 446.929 7.4127C442.61 8.58801 438.903 11.3102 436.176 14.6166C434.154 17.08 432.628 20.0112 432.624 23.1012C432.621 26.1914 434.456 29.392 437.565 30.4953C438.812 27.5768 440.104 24.6013 442.477 22.3554C444.822 20.1241 448.539 18.7994 451.643 19.9942C451.595 23.1413 449.245 25.7658 447.739 28.5632C446.232 31.3605 445.819 35.3787 448.648 37.0987C451.208 38.6484 454.532 37.3036 457.485 36.5489C461.986 35.426 466.918 35.9379 471.031 37.934C471.335 39.9505 468.96 41.5221 466.78 41.6854C464.6 41.8486 462.436 41.1335 460.237 41.1286C458.037 41.1237 455.523 42.2136 455.276 44.2341C455.14 45.2411 455.554 46.4758 454.731 47.1455C454.079 47.6783 453.046 47.4743 452.231 47.2168C447.224 45.7303 442.193 44.2372 437.179 42.772C435.771 42.3438 434.234 41.9252 432.8 42.3263C431.59 42.6525 430.651 43.5212 429.833 44.4014C427.768 46.62 426.15 49.2229 425.127 51.9964C424.935 52.4989 424.774 53.057 424.959 53.5518C425.12 53.9701 425.49 54.2856 425.858 54.5311C427.948 55.9919 430.512 56.7059 432.965 57.5274C438.281 59.2889 443.356 61.701 448.02 64.6687C448.511 64.9962 449.025 65.3302 449.339 65.8154C449.763 66.4951 449.707 67.3391 449.528 68.1009C449.226 69.3853 448.565 70.5431 447.704 71.5507C444.7 71.4072 440.756 70.7843 435.746 69.2274C421.41 64.7334 415.734 58.5689 415.734 58.5689L421.35 41.7067C421.35 41.7067 413.887 37.3058 412.436 33.1003C410.978 28.9159 411.154 19.902 413.853 15.4024C416.582 10.888 422.568 9.96011 422.568 9.96011Z" fill="#A8A094"/>
<path d="M421.436 8.70463C422.101 7.38497 423.783 4.66145 427.518 2.15642C431.805 -0.724812 440.609 -0.424236 446.726 1.3349C449.1 2.01755 451.109 2.8972 452.682 3.95406C456.92 6.77634 458.003 10.4346 458.724 12.8499C458.977 13.6666 459.299 14.8048 459.59 14.9815C459.92 15.1926 460.866 15.581 461.888 15.9677C465.938 17.5506 472.695 20.1679 476.372 26.1756C480.026 32.177 478.511 36.5756 477.713 38.9724C477.571 39.3967 477.395 39.9269 477.377 40.1309C477.458 40.3399 477.727 40.8823 477.964 41.299C479.314 43.7789 482.094 48.9481 480.542 56.6131C479.947 59.6026 478.321 61.8548 475.733 63.3185C471.368 65.7586 465.518 65.0757 462.733 64.2747C461.98 64.0581 461.339 63.8044 460.826 63.5409C460.444 63.3374 460.105 63.0779 459.797 62.8025L457.126 70.8202C457.02 71.1385 456.8 71.4242 456.487 71.6126C456.241 71.751 450.558 74.9979 436.839 71.0523C436.314 70.9017 435.766 70.7438 435.248 70.5716C420.661 66.0052 414.817 59.7461 414.554 59.4845C414.205 59.1055 414.102 58.5876 414.258 58.121L419.534 42.2768C417.309 40.8467 412.253 37.2544 410.971 33.516C409.358 28.822 409.675 19.3839 412.52 14.6706C414.929 10.6683 419.504 9.17184 421.436 8.70463ZM413.224 29.9803C413.229 31.1671 413.384 31.9785 413.861 32.6502C414.284 33.2598 414.974 33.7375 416.053 34.2565C418.246 35.329 420.726 35.6935 423.193 35.7985C425.115 35.8862 425.684 34.702 425.325 32.9254C425.085 31.6942 424.379 30.5847 423.778 29.4591C421.63 25.4713 420.732 20.6576 422.51 16.5205C422.271 18.2881 422.169 20.0949 422.226 21.8776C422.251 22.9305 422.35 23.9819 422.609 25.0091C423.502 28.636 426.334 31.4725 429.357 33.7363C430.057 34.263 430.876 35.0331 431.708 35.3885C432.654 35.7768 433.872 35.8015 434.89 36.0479C436.479 36.4585 438.436 37.4163 439.685 35.8462C440.287 35.0897 440.438 34.1105 440.598 33.1802C441.184 29.7694 442.006 26.1712 444.509 23.6137C445.461 22.6325 446.622 21.8507 447.785 21.1391C444.409 24.5147 442.206 28.878 441.579 33.4625C441.213 36.2158 441.721 38.5933 444.094 40.1819L443.297 39.7204C443.643 39.9592 443.995 40.1769 444.362 40.3521C444.401 40.3865 444.446 40.3996 444.508 40.4404C445.45 40.9905 446.241 41.5433 447.082 41.9478L448.086 42.5387C450.124 43.7056 452.241 44.7094 454.677 45.131C447.852 44.1445 441.776 40.6077 435.089 39.0567C432.885 38.5392 430.558 38.2418 428.338 38.6728C422.718 39.7759 421.893 44.884 420.459 49.1898C419.463 52.1804 418.474 55.1499 417.477 58.1407C419.207 59.7069 424.982 64.2962 436.212 67.8275C436.73 67.9997 437.232 68.1445 437.734 68.2887C437.826 68.3148 437.894 68.3343 437.986 68.3611C440.478 68.6129 443.838 68.8118 445.067 68.3521C447.127 67.5732 444.969 64.4424 440.099 62.089C435.23 59.7363 418.57 57.0372 418.57 57.0372C418.57 57.0372 435.664 57.9085 445.606 62.3016C451.204 64.7946 453.683 66.739 454.793 67.988C454.668 67.836 455.315 66.418 455.372 66.2485C455.817 64.9127 456.138 64.4006 455.054 63.2983C454.349 62.5612 453.63 61.8665 452.807 61.258C451.462 60.2665 449.912 59.5882 448.369 58.889C450.932 58.9287 453.483 59.7552 455.527 61.2032C455.649 61.2847 455.788 61.3943 455.962 61.3983C456.061 61.4034 456.15 61.3591 456.24 61.3153C457.397 60.6951 457.835 59.3801 458.209 58.2559C458.549 57.2377 459.038 56.5186 459.545 55.5955C460.751 53.4784 460.29 50.5803 459.213 48.481C458.968 48.0153 458.671 47.5578 458.218 47.265C458.895 47.4832 459.399 47.9997 459.863 48.4819C460.715 49.3778 461.494 50.3453 461.98 51.4382C462.644 52.9768 462.407 54.8145 461.891 56.3629C461.368 58.2345 461.185 60.4361 462.317 61.0173C462.485 61.1125 462.875 61.2945 463.605 61.5045C466.55 62.3512 471.104 62.4987 474.081 60.8444C475.864 59.8465 476.998 58.2433 477.439 56.0925C478.794 49.3936 476.41 44.9891 475.122 42.6202C474.657 41.7657 474.333 41.1612 474.221 40.5946C474.097 39.8386 474.345 39.0963 474.67 38.1206C475.435 35.9001 476.58 32.5342 473.586 27.6292C470.444 22.4955 464.289 20.098 460.613 18.669C459.286 18.1479 458.332 17.7808 457.696 17.3653C456.506 16.5815 456.111 15.213 455.659 13.6419C454.987 11.3801 454.15 8.55962 450.818 6.32314C449.529 5.46418 447.78 4.70572 445.749 4.12157C439.608 2.35589 432.221 2.53245 429.281 4.52277C425.092 7.33892 424.006 10.3735 423.999 10.3947C423.823 10.925 423.348 11.2997 422.768 11.3886C422.715 11.3967 417.482 12.2393 415.176 16.085C412.674 20.2928 413.231 25.3802 413.224 29.9803Z" fill="#0D0D0D"/>
<path d="M433.872 3.96001C436.643 3.22308 439.683 3.6325 442.28 4.77422C442.608 4.91511 442.952 5.08373 443.155 5.37463C443.359 5.66548 443.398 6.07203 443.14 6.32302C440.686 5.8035 437.89 5.78947 435.851 7.17879C435.041 7.73589 434.422 8.4646 433.805 9.19338C433.106 10.015 432.407 10.8368 431.708 11.6584C431.303 12.123 430.921 12.5942 430.369 12.9003C429.84 13.2129 429.14 13.3603 428.568 13.126C428.042 12.905 427.705 12.4131 427.549 11.9035C427.272 11.0102 427.415 10.0522 427.728 9.18913C428.681 6.62769 431.1 4.69694 433.872 3.96001Z" fill="#4D4D4D"/>
<path d="M464.886 54.8069C465.149 54.7664 465.416 54.8663 465.66 54.9598C467.086 55.486 469.589 56.2292 470.96 55.3449C471.086 55.2651 471.19 55.1787 471.301 55.0711C472.216 54.1257 472.298 52.4527 474.021 52.4601C474.218 52.4703 474.438 52.4869 474.594 52.3925C474.751 52.2981 474.837 52.1136 474.893 51.944C475.068 51.3434 475.018 47.2151 476.595 49.3886C477.04 50.0047 477.221 50.9631 477.313 51.6636C477.561 53.2457 477.32 54.8729 476.59 56.3132C475.31 58.804 472.563 60.5939 469.622 60.8632C467.917 61.0244 466.11 60.6676 464.883 59.547C463.655 58.4272 463.27 56.5037 464.268 55.2336C464.437 55.0265 464.622 54.8472 464.886 54.8069Z" fill="#4D4D4D"/>
<path d="M434.496 59.0312L446 62.6875V70L440 68.5L438 65L437 64.3125L436 64L433.996 63.5L434.496 59.0312Z" fill="#121212"/>
<path d="M419 59.7728L421.5 57.5L429.5 58L432.248 58.625L434.927 59.1682L434.5 63.5H433.996L432.495 63.0938L431.5 63L430.495 63.0938L429.494 63.5L428.5 64L426.5 65L418 67.0853L419 59.7728Z" fill="#121212"/>
</g>
<defs>
<clipPath id="clip0_61_291">
<rect width="71" height="73" fill="white" transform="translate(410)"/>
</clipPath>
</defs>
</svg>
