<svg width="66" height="66" viewBox="0 0 66 66" fill="none" xmlns="http://www.w3.org/2000/svg">
<rect width="66" height="65.8791" rx="32.9396" fill="#121212"/>
<path d="M32.4505 49.4094C27.8088 49.4094 27.2616 49.3849 25.4502 49.3058C24.0376 49.2594 22.6434 48.9728 21.3274 48.4582C19.0506 47.5738 17.2502 45.7761 16.365 43.503C15.8693 42.1847 15.602 40.7919 15.5744 39.384C15.4687 37.5798 15.4688 36.9884 15.4688 32.391C15.4688 27.7447 15.4933 27.2022 15.5744 25.4036C15.6026 23.9977 15.8699 22.6068 16.365 21.2903C17.2492 19.0142 19.0525 17.2149 21.3331 16.3332C22.6513 15.8363 24.0451 15.5688 25.454 15.5421C27.2559 15.4404 27.8484 15.4404 32.4505 15.4404C37.1299 15.4404 37.6676 15.4649 39.4507 15.5421C40.863 15.569 42.2606 15.8365 43.5829 16.3332C45.8628 17.2159 47.6657 19.0149 48.551 21.2903C49.055 22.626 49.3237 24.0386 49.3454 25.4657C49.451 27.27 49.451 27.8596 49.451 32.455C49.451 37.0505 49.4246 37.6532 49.3454 39.4368C49.3173 40.8459 49.0491 42.24 48.5529 43.5595C47.6653 45.8341 45.8622 47.6326 43.5829 48.5166C42.2625 49.0105 40.8679 49.2773 39.4583 49.3058C37.6563 49.4094 37.0657 49.4094 32.4505 49.4094ZM32.3864 18.4218C27.771 18.4218 27.2918 18.4444 25.4898 18.5254C24.4143 18.5397 23.3491 18.7378 22.3407 19.1112C20.8515 19.68 19.6731 20.8514 19.0972 22.3355C18.7202 23.3531 18.5217 24.428 18.5104 25.5128C18.4104 27.3378 18.4104 27.8162 18.4104 32.391C18.4104 36.9111 18.4273 37.4592 18.5104 39.2729C18.5273 40.3468 18.7256 41.4102 19.0972 42.4182C19.6739 43.9014 20.8521 45.0719 22.3407 45.6407C23.3485 46.0166 24.414 46.2147 25.4898 46.2264C27.3163 46.3319 27.7974 46.3319 32.3864 46.3319C37.0148 46.3319 37.4941 46.3093 39.2809 46.2264C40.3572 46.2134 41.423 46.0153 42.4319 45.6407C43.912 45.067 45.0828 43.8991 45.6585 42.422C46.0347 41.4036 46.233 40.3282 46.2453 39.2428H46.266C46.3472 37.4423 46.3472 36.962 46.3472 32.3609C46.3472 27.7597 46.3264 27.2757 46.2453 25.477C46.2283 24.4044 46.0298 23.3423 45.6585 22.3355C45.0841 20.8563 43.9131 19.6862 42.4319 19.1112C41.4232 18.7359 40.3572 18.5377 39.2809 18.5254C37.4563 18.4218 36.9789 18.4218 32.3864 18.4218ZM32.4505 41.0904C28.9219 41.0927 25.7397 38.9729 24.3876 35.7199C23.0356 32.4667 23.7802 28.7208 26.274 26.2294C28.7679 23.7379 32.5199 22.9915 35.7802 24.3382C39.0405 25.685 41.1668 28.8596 41.1678 32.3816C41.1625 37.1863 37.2639 41.081 32.4505 41.0904ZM32.4505 26.7276C29.3242 26.7276 26.7899 29.2574 26.7899 32.3778C26.7899 35.4984 29.3242 38.028 32.4505 38.028C35.5766 38.028 38.1111 35.4984 38.1111 32.3778C38.1037 29.2602 35.5736 26.7349 32.4505 26.7276ZM41.5074 25.3848C40.3855 25.3806 39.4788 24.4705 39.4809 23.3507C39.483 22.2309 40.393 21.3242 41.5149 21.3242C42.6367 21.3242 43.5467 22.2309 43.549 23.3507C43.5493 23.891 43.3342 24.4092 42.9512 24.7909C42.5682 25.1726 42.0485 25.3863 41.5074 25.3848Z" fill="#D9D9D9"/>
</svg>
