<svg width="66" height="66" viewBox="0 0 66 66" fill="none" xmlns="http://www.w3.org/2000/svg">
<rect width="66" height="65.8791" rx="32.9396" fill="#121212"/>
<path d="M36.4375 48.38H28.875V25.7341H36.4375V29.5084C38.0494 27.4613 40.494 26.2409 43.1019 26.1814C47.7918 26.2073 51.5761 30.0168 51.5625 34.6981V48.38H44V35.6417C43.6975 33.533 41.8859 31.9685 39.7517 31.9731C38.8183 32.0025 37.9371 32.4105 37.3117 33.1027C36.6863 33.7951 36.3706 34.7119 36.4375 35.6417V48.38ZM25.0937 48.38H17.5312V25.7341H25.0937V48.38ZM21.3125 21.9598C19.2242 21.9598 17.5312 20.27 17.5312 18.1855C17.5312 16.101 19.2242 14.4111 21.3125 14.4111C23.4008 14.4111 25.0937 16.101 25.0937 18.1855C25.0937 19.1865 24.6954 20.1465 23.9862 20.8543C23.2771 21.5621 22.3153 21.9598 21.3125 21.9598Z" fill="#D9D9D9"/>
</svg>
