<svg width="66" height="66" viewBox="0 0 66 66" fill="none" xmlns="http://www.w3.org/2000/svg">
<rect width="66" height="65.8791" rx="32.9396" fill="#121212"/>
<path d="M45.4913 23.9086C46.9497 23.0384 48.041 21.668 48.5613 20.0535C47.191 20.8651 45.6915 21.4369 44.128 21.744C41.9603 19.4551 38.5258 18.8981 35.7437 20.3842C32.9615 21.8703 31.5204 25.0316 32.2257 28.1016C26.6123 27.8203 21.3824 25.1735 17.8375 20.82C15.9875 24.0051 16.9329 28.0769 19.998 30.125C18.8896 30.0894 17.8058 29.7898 16.837 29.2513C16.837 29.2805 16.837 29.3098 16.837 29.339C16.8376 32.6568 19.1803 35.5149 22.4383 36.1724C21.4102 36.4516 20.3318 36.4927 19.2854 36.2926C20.2017 39.1301 22.8216 41.0739 25.8076 41.1319C23.3345 43.0693 20.2802 44.1202 17.1363 44.115C16.5791 44.1158 16.0222 44.0838 15.4688 44.0192C18.6613 46.0669 22.3771 47.1538 26.1721 47.1501C31.4518 47.1863 36.5256 45.1087 40.2588 41.3819C43.992 37.6552 46.0731 32.5904 46.0364 27.3205C46.0364 27.0184 46.0294 26.718 46.0152 26.4192C47.3826 25.4328 48.5626 24.2109 49.5 22.8109C48.2261 23.3745 46.875 23.7445 45.4913 23.9086Z" fill="#D9D9D9"/>
</svg>
