<svg width="66" height="66" viewBox="0 0 66 66" fill="none" xmlns="http://www.w3.org/2000/svg">
<rect width="66" height="65.8791" rx="32.9396" fill="#121212"/>
<path d="M15.4688 32.5271C15.4708 40.9339 21.5951 48.092 29.9133 49.4094V37.4658H25.5698V32.5271H29.9185V28.7676C29.724 26.9861 30.3336 25.2106 31.5819 23.9227C32.8301 22.6348 34.5877 21.9678 36.378 22.1028C37.6629 22.1235 38.9445 22.2378 40.213 22.4446V26.6468H38.049C37.3039 26.5494 36.5549 26.795 36.0128 27.3144C35.4708 27.8338 35.1945 28.5708 35.2617 29.3177V32.5271H40.0058L39.2474 37.4675H35.2617V49.4094C44.2575 47.9903 50.5657 39.7896 49.6164 30.7483C48.6669 21.707 40.792 14.9902 31.6969 15.464C22.6017 15.9378 15.4702 23.4363 15.4688 32.5271Z" fill="#D9D9D9"/>
</svg>
