<svg width="66" height="66" viewBox="0 0 66 66" fill="none" xmlns="http://www.w3.org/2000/svg">
<rect width="66" height="65.8791" rx="32.9396" fill="#121212"/>
<path d="M32.5054 44.3662H32.4714C32.366 44.3662 21.82 44.3458 19.1592 43.6245C17.6961 43.2312 16.5535 42.0899 16.1601 40.6293C15.6817 37.935 15.4506 35.2026 15.4699 32.4665C15.4575 29.7257 15.6948 26.9896 16.1788 24.2918C16.583 22.8298 17.7206 21.6834 19.1813 21.266C21.7689 20.5872 32.0243 20.5872 32.4595 20.5872H32.4952C32.6024 20.5872 43.1756 20.6075 45.8092 21.3288C47.2693 21.7242 48.4096 22.8631 48.8049 24.3207C49.2986 27.025 49.5303 29.7704 49.4968 32.5191C49.5087 35.2564 49.2709 37.9892 48.7862 40.6836C48.3878 42.1423 47.2445 43.2811 45.782 43.6755C43.1977 44.3594 32.9407 44.3662 32.5054 44.3662ZM29.1051 27.3838L29.0966 37.5661L37.9579 32.475L29.1051 27.3838Z" fill="#D9D9D9"/>
</svg>
